<svg xmlns="http://www.w3.org/2000/svg" viewBox="0 0 980 600" font-family="Helvetica, Arial, sans-serif">
<defs>
<marker id="arr" markerWidth="8" markerHeight="8" refX="6" refY="3" orient="auto"><path d="M0,0 L6,3 L0,6 Z" fill="#5E8B8F"/></marker>
<marker id="arrw" markerWidth="8" markerHeight="8" refX="6" refY="3" orient="auto"><path d="M0,0 L6,3 L0,6 Z" fill="#8A8279"/></marker>
<pattern id="granulat" width="9" height="9" patternUnits="userSpaceOnUse"><circle cx="3" cy="3" r="1.4" fill="#8A8279" opacity="0.55"/><circle cx="7" cy="7" r="1.2" fill="#8A8279" opacity="0.4"/></pattern>
<pattern id="terre" width="10" height="10" patternUnits="userSpaceOnUse"><path d="M0,10 L10,0" stroke="#5E8B8F" stroke-width="0.5" opacity="0.35"/></pattern>
</defs>
<text x="40" y="40" font-size="21" fill="#2D2D2D" letter-spacing="0.5">Gestion alternative des eaux pluviales à la parcelle</text>
<text x="40" y="62" font-size="13" fill="#888" letter-spacing="1.5">COUPE DE PRINCIPE · INTÉGRATION AU PROJET PAYSAGER</text>
<rect x="40" y="180" width="600" height="320" fill="#EDECEA" stroke="#cfcdc8" stroke-width="1"/>
<rect x="40" y="180" width="600" height="42" fill="url(#terre)" stroke="#5E8B8F" stroke-width="1"/>
<line x1="40" y1="180" x2="640" y2="180" stroke="#2D2D2D" stroke-width="1.5"/>
<text x="48" y="174" font-size="11" fill="#2D2D2D">NIVEAU JARDIN (TN) — terre végétale amendée, plantations</text>
<g stroke="#8A8279" stroke-width="1.3" marker-end="url(#arrw)">
<line x1="110" y1="92" x2="110" y2="150"/><line x1="150" y1="100" x2="150" y2="150"/>
<line x1="200" y1="92" x2="200" y2="150"/><line x1="250" y1="100" x2="250" y2="150"/>
</g>
<text x="100" y="86" font-size="11" fill="#8A8279">eaux pluviales</text>
<rect x="120" y="232" width="92" height="210" fill="url(#granulat)" stroke="#8A8279" stroke-width="1.2"/>
<text x="166" y="300" font-size="11" fill="#2D2D2D" text-anchor="middle" transform="rotate(-90 166 300)">tranchée drainante (granulat)</text>
<rect x="420" y="300" width="150" height="150" rx="6" fill="#ffffff" stroke="#5E8B8F" stroke-width="2"/>
<text x="495" y="360" font-size="12" fill="#2D2D2D" text-anchor="middle">cuve de</text>
<text x="495" y="378" font-size="12" fill="#2D2D2D" text-anchor="middle">rétention</text>
<rect x="424" y="392" width="142" height="54" rx="2" fill="#8A8279" opacity="0.18"/>
<rect x="470" y="172" width="50" height="10" fill="#8A8279" opacity="0.7"/>
<line x1="495" y1="182" x2="495" y2="300" stroke="#8A8279" stroke-width="1" stroke-dasharray="3 3"/>
<text x="528" y="166" font-size="10.5" fill="#8A8279">tampon habillé</text>
<line x1="212" y1="410" x2="420" y2="426" stroke="#5E8B8F" stroke-width="2.4" marker-end="url(#arr)"/>
<text x="250" y="404" font-size="10.5" fill="#5E8B8F">raccord gravitaire</text>
<line x1="570" y1="330" x2="636" y2="330" stroke="#5E8B8F" stroke-width="2" marker-end="url(#arr)"/>
<text x="588" y="324" font-size="10.5" fill="#5E8B8F">trop-plein</text>
<line x1="392" y1="180" x2="392" y2="300" stroke="#888" stroke-width="1"/>
<line x1="388" y1="180" x2="396" y2="180" stroke="#888" stroke-width="1"/>
<line x1="388" y1="300" x2="396" y2="300" stroke="#888" stroke-width="1"/>
<text x="382" y="244" font-size="11" fill="#2D2D2D" text-anchor="end">≥ 80 cm</text>
<text x="382" y="260" font-size="9.5" fill="#888" text-anchor="end">(coef. pleine terre 0,8)</text>
<rect x="680" y="120" width="270" height="250" fill="#ffffff" stroke="#8A8279" stroke-width="1.3"/>
<text x="700" y="150" font-size="11.5" fill="#8A8279" letter-spacing="0.5">IMPACT RÉGLEMENTAIRE MAÎTRISÉ</text>
<line x1="700" y1="160" x2="930" y2="160" stroke="#e3e1dc"/>
<text x="700" y="190" font-size="12" fill="#2D2D2D">Score surface végétalisée (SVP) :</text>
<text x="700" y="214" font-size="12" fill="#888">existant</text><text x="930" y="214" font-size="12" fill="#2D2D2D" text-anchor="end">64,1</text>
<text x="700" y="236" font-size="12" fill="#888">projet (PC)</text><text x="930" y="236" font-size="12" fill="#2D2D2D" text-anchor="end">71,4</text>
<text x="700" y="258" font-size="12" fill="#2D2D2D">révisé (ouvrages intégrés)</text><text x="930" y="258" font-size="13" fill="#5E8B8F" text-anchor="end" font-weight="bold">69,45</text>
<line x1="700" y1="272" x2="930" y2="272" stroke="#e3e1dc"/>
<text x="700" y="296" font-size="11.5" fill="#2D2D2D">→ conformité au PLU préservée</text>
<text x="700" y="320" font-size="11" fill="#888">IVB neutre : ouvrages enterrés ≥ 80 cm,</text>
<text x="700" y="336" font-size="11" fill="#888">surplombés de terre végétale amendée.</text>
</svg>